<?xml version="1.0" standalone="no"?>
<!DOCTYPE svg PUBLIC "-//W3C//DTD SVG 20010904//EN"
 "http://www.w3.org/TR/2001/REC-SVG-20010904/DTD/svg10.dtd">
<svg version="1.0" xmlns="http://www.w3.org/2000/svg"
 width="260.000000pt" height="260.000000pt" viewBox="0 0 260.000000 260.000000"
 preserveAspectRatio="xMidYMid meet">
<metadata>
Created by potrace 1.11, written by Peter Selinger 2001-2013
</metadata>
<g transform="translate(0.000000,260.000000) scale(0.100000,-0.100000)"
fill="#000000" stroke="none">
<path d="M0 1300 l0 -1300 1300 0 1300 0 0 1300 0 1300 -1300 0 -1300 0 0
-1300z m1580 15 l0 -1045 -270 0 -270 0 0 1045 0 1045 270 0 270 0 0 -1045z
m740 -210 l0 -835 -270 0 -270 0 0 835 0 835 270 0 270 0 0 -835z m-1480 -240
l0 -595 -270 0 -270 0 0 595 0 595 270 0 270 0 0 -595z"/>
</g>
</svg>
